<svg xmlns="http://www.w3.org/2000/svg" width="32" height="32" viewBox="0 0 32 32"><g class="nc-icon-wrapper" fill="#111111"><rect x="17" y="1" width="6" height="14" rx="3" fill="#111111"></rect><rect x="1" y="9" width="14" height="6" rx="3" fill="#111111"></rect><rect x="17" y="17" width="14" height="6" rx="3" fill="#111111"></rect><rect x="9" y="17" width="6" height="14" rx="3" fill="#111111"></rect><path data-color="color-2" d="M12,1a3,3,0,0,0,0,6h3V4A3,3,0,0,0,12,1Z"></path><path data-color="color-2" d="M1,20a3,3,0,0,0,6,0V17H4A3,3,0,0,0,1,20Z"></path><path data-color="color-2" d="M31,12a3,3,0,0,0-6,0v3h3A3,3,0,0,0,31,12Z"></path><path data-color="color-2" d="M20,31a3,3,0,0,0,0-6H17v3A3,3,0,0,0,20,31Z"></path></g></svg>