<svg width="791" height="57" viewBox="0 0 791 57" fill="none" xmlns="http://www.w3.org/2000/svg">
<path fill-rule="evenodd" clip-rule="evenodd" d="M292.5 22.038C296.6 22.438 303.1 23.6381 307 24.7381C313.2 26.6381 316.7 26.938 339.5 27.038C367.7 27.138 370.8 27.038 381.2 25.5381C385.1 24.9381 393.7 24.0381 400.2 23.5381C430.4 21.3381 445 18.938 462.3 13.4381C467.2 11.9381 469 11.7381 470.6 12.6381C474.2 14.5381 491.1 11.7381 498.3 8.03806C501.2 6.53806 504.3 5.63806 505 5.93805C505.8 6.23805 509 5.63807 512.2 4.63807C520.5 1.93807 523.1 1.43806 530.8 0.938057C535.6 0.538056 537.5 0.738057 537 1.43806C536.1 2.93806 537.9 2.83806 542.2 1.03806C545.5 -0.361937 546 -0.361929 547.7 1.13807C548.7 2.13807 549.3 3.13806 549 3.43806C548.7 3.73806 550.5 4.73808 553 5.73808C557.4 7.43808 557.6 7.43807 564.3 5.03807C568 3.73807 572.2 2.73809 573.5 2.83809C574.9 2.93808 579.1 2.63807 582.8 2.13807C588.5 1.43807 590.3 1.63807 593.3 3.03807C607.6 9.83807 609.5 10.4381 618.5 11.6381C623.7 12.3381 629.1 12.8381 630.5 12.8381C631.9 12.8381 636.4 13.3381 640.5 14.1381C657.5 17.2381 696.5 20.3381 696.5 18.7381C696.5 17.7381 708.9 15.9381 721.5 14.9381C732.2 14.1381 733.9 14.2381 734.3 15.4381C734.5 16.0381 735.6 15.9381 736.9 14.9381C738.2 14.1381 740.5 13.5381 742.1 13.5381C743.7 13.5381 751.1 13.4381 758.5 13.2381C766.6 13.0381 774.1 13.4381 777.3 14.1381C780.9 14.9381 783.9 15.0381 786.7 14.3381C787.756 14.0982 789.318 13.8813 791 13.7095L791 57L0 56.9999L3.6863e-06 14.8335C11.6809 15.0569 16.5 15.4492 16.5 16.138C16.5 18.038 20.8 18.638 26.6 17.538C29.6 17.038 33.6 16.638 35.5 16.638C37.4 16.638 45 16.338 52.4 16.038C64.2 15.538 65.9999 15.638 67.7 17.238C69.1 18.438 71.4999 18.938 77.2999 19.038C81.7999 19.138 85.9999 19.838 87.2 20.538C88.9999 21.738 91.1 21.638 100.7 20.138C113 18.338 119.2 17.838 120.1 18.838C120.5 19.138 122.4 18.838 124.3 17.938C127 16.838 131 16.538 140.2 16.738C149 16.938 152.8 16.738 153.3 15.838C153.8 15.138 156.5 14.638 160.2 14.638C163.6 14.638 167.2 14.238 168.2 13.738C170.6 12.438 177.5 11.138 179.9 11.438C181 11.638 183 12.2381 184.4 12.8381C185.8 13.3381 187.5 13.738 188.2 13.638C188.8 13.538 189.6 13.938 190 14.538C190.3 15.038 191.6 15.538 192.8 15.538C194.1 15.538 196.1 16.238 197.3 17.138C199.2 18.438 203 18.738 218.8 18.738C237.6 18.838 251.6 18.2381 253.2 17.2381C253.7 16.9381 257 17.138 260.5 17.638C264.1 18.238 269 18.738 271.5 18.938C274 19.038 278 19.7381 280.5 20.3381C283 20.8381 288.4 21.638 292.5 22.038Z" fill="#111111"/>
</svg>
