<svg width="791" height="100" viewBox="0 0 791 100" xmlns="http://www.w3.org/2000/svg"><path fill-rule="evenodd" fill="#000" d="M0 0H791V100H0ZM292.5 65.038C296.6 65.438 303.1 66.6381 307 67.7381C313.2 69.6381 316.7 69.938 339.5 70.038C367.7 70.138 370.8 70.038 381.2 68.5381C385.1 67.9381 393.7 67.0381 400.2 66.5381C430.4 64.3381 445 61.938 462.3 56.4381C467.2 54.9381 469 54.7381 470.6 55.6381C474.2 57.5381 491.1 54.7381 498.3 51.03806C501.2 49.53806 504.3 48.63806 505 48.93805C505.8 49.23805 509 48.63807 512.2 47.63807C520.5 44.93807 523.1 44.43806 530.8 43.938057C535.6 43.538056 537.5 43.738057 537 44.43806C536.1 45.93806 537.9 45.83806 542.2 44.03806C545.5 42.638063 546 42.638071 547.7 44.13807C548.7 45.13807 549.3 46.13806 549 46.43806C548.7 46.73806 550.5 47.73808 553 48.73808C557.4 50.43808 557.6 50.43807 564.3 48.03807C568 46.73807 572.2 45.73809 573.5 45.83809C574.9 45.93808 579.1 45.63807 582.8 45.13807C588.5 44.43807 590.3 44.63807 593.3 46.03807C607.6 52.83807 609.5 53.4381 618.5 54.6381C623.7 55.3381 629.1 55.8381 630.5 55.8381C631.9 55.8381 636.4 56.3381 640.5 57.1381C657.5 60.2381 696.5 63.3381 696.5 61.7381C696.5 60.7381 708.9 58.9381 721.5 57.9381C732.2 57.1381 733.9 57.2381 734.3 58.4381C734.5 59.0381 735.6 58.9381 736.9 57.9381C738.2 57.1381 740.5 56.5381 742.1 56.5381C743.7 56.5381 751.1 56.4381 758.5 56.2381C766.6 56.0381 774.1 56.4381 777.3 57.1381C780.9 57.9381 783.9 58.0381 786.7 57.3381C787.756 57.0982 789.318 56.8813 791 56.7095L791 100L0 99.9999L0.000004 57.8335C11.6809 58.0569 16.5 58.4492 16.5 59.138C16.5 61.038 20.8 61.638 26.6 60.538C29.6 60.038 33.6 59.638 35.5 59.638C37.4 59.638 45 59.338 52.4 59.038C64.2 58.538 65.9999 58.638 67.7 60.238C69.1 61.438 71.4999 61.938 77.2999 62.038C81.7999 62.138 85.9999 62.838 87.2 63.538C88.9999 64.738 91.1 64.638 100.7 63.138C113 61.338 119.2 60.838 120.1 61.838C120.5 62.138 122.4 61.838 124.3 60.938C127 59.838 131 59.538 140.2 59.738C149 59.938 152.8 59.738 153.3 58.838C153.8 58.138 156.5 57.638 160.2 57.638C163.6 57.638 167.2 57.238 168.2 56.738C170.6 55.438 177.5 54.138 179.9 54.438C181 54.638 183 55.2381 184.4 55.8381C185.8 56.3381 187.5 56.738 188.2 56.638C188.8 56.538 189.6 56.938 190 57.538C190.3 58.038 191.6 58.538 192.8 58.538C194.1 58.538 196.1 59.238 197.3 60.138C199.2 61.438 203 61.738 218.8 61.738C237.6 61.838 251.6 61.2381 253.2 60.2381C253.7 59.9381 257 60.138 260.5 60.638C264.1 61.238 269 61.738 271.5 61.938C274 62.038 278 62.7381 280.5 63.3381C283 63.8381 288.4 64.638 292.5 65.038Z"/></svg>
