<?xml version="1.0" encoding="UTF-8"?>
<svg xmlns="http://www.w3.org/2000/svg" viewBox="0 0 1024 1024" width="1024" height="1024">
  <title>Truco</title>
  <!-- Felt-dark background. iOS applies its own rounded mask, so this stays flat full-bleed.
       Glyph paths come from Figma node 41-441 verbatim. Suit palette uses the
       dark-theme suit and accent tokens from src/index.css. -->
  <rect width="1024" height="1024" fill="#0D1110"/>

  <!-- Espada — top-left -->
  <path fill="#88A8BF" d="M293.907 146.893C294.355 143.036 300.645 143.036 301.093 146.893L325.365 355.92C325.693 358.744 328.085 360.874 330.928 360.874H395.469C399.076 360.874 402 363.561 402 366.874V378.874C402 382.188 399.076 384.874 395.469 384.874H317.6C314.507 384.874 312 387.382 312 390.474V416.19C312 418.142 313.044 419.919 314.583 421.119C320.93 426.065 325 433.704 325 442.277C325 457.188 312.688 469.277 297.5 469.277C282.312 469.277 270 457.188 270 442.277C270 433.704 274.07 426.065 280.417 421.119C281.956 419.919 283 418.142 283 416.19V390.474C283 387.382 280.493 384.874 277.4 384.874H199.531C195.924 384.874 193 382.188 193 378.874V366.874C193 363.561 195.924 360.874 199.531 360.874H264.072C266.915 360.874 269.307 358.744 269.635 355.92L293.907 146.893Z"/>

  <!-- Oro — top-right -->
  <circle cx="711" cy="308" r="119" fill="none" stroke="#D68B5C" stroke-width="26.2508"/>
  <circle cx="711.006" cy="308.171" r="59.064" fill="#D68B5C"/>

  <!-- Copa — bottom-left -->
  <path fill="#D24150" d="M400.006 595.277C403.099 595.277 405.606 597.784 405.606 600.876V619.778C405.606 682.18 385.659 739.174 319.059 748.965C314.966 749.566 311.797 752.993 311.797 757.129V834C311.797 838.419 315.379 842 319.797 842H371.152C375.653 842 379.302 844.985 379.303 848.666V859.333C379.303 863.015 375.653 866 371.152 866H224.453C219.952 866 216.303 863.015 216.303 859.333V848.666C216.303 844.985 219.952 842 224.453 842H275.797C280.215 842 283.797 838.419 283.797 834V757.127C283.797 752.991 280.628 749.565 276.536 748.963C209.944 739.167 190 682.177 190 619.778V600.876C190 597.784 192.507 595.277 195.6 595.277H400.006Z"/>

  <!-- Basto — bottom-right -->
  <path fill="#76A78B" d="M684.624 850.204C685.485 864.139 697.038 875 711 875C724.962 875 736.515 864.139 737.376 850.204L752.286 608.916C753.757 585.113 734.849 565 711 565C687.151 565 668.243 585.113 669.714 608.916L684.624 850.204Z"/>
</svg>
